<svg xmlns="http://www.w3.org/2000/svg" version="1.1" xmlns:xlink="http://www.w3.org/1999/xlink" xmlns:svgjs="http://svgjs.dev/svgjs" viewBox="0 0 800 800" opacity="0.22"><defs><symbol id="bbburst-shape-1" viewBox="0 0 194 167"><path d="m97 0 96.129 166.5H.871L97 0Z"></path></symbol><symbol id="bbburst-shape-4" viewBox="0 0 149 143"><path d="M71.647 2.781c.898-2.764 4.808-2.764 5.706 0l15.445 47.534a3 3 0 0 0 2.853 2.073h49.98c2.906 0 4.115 3.719 1.764 5.427L106.96 87.193a2.999 2.999 0 0 0-1.09 3.354l15.445 47.534c.898 2.764-2.266 5.062-4.617 3.354l-40.435-29.378a3 3 0 0 0-3.526 0l-40.435 29.378c-2.351 1.708-5.515-.59-4.617-3.354L43.13 90.547a3 3 0 0 0-1.09-3.354L1.605 57.815c-2.35-1.708-1.142-5.427 1.764-5.427h49.98a3 3 0 0 0 2.853-2.073L71.647 2.781Z"></path></symbol><symbol id="bbburst-shape-6" viewBox="0 0 133 116"><path d="M59.7487 10.2513c-13.6683-13.66839-35.8291-13.66839-49.4974 0-13.66839 13.6683-13.66839 35.8291 0 49.4974l49.4974-49.4974ZM66.5 66.5 41.7513 91.2487 66.5 115.997l24.7487-24.7483L66.5 66.5Zm56.249-6.7513c13.668-13.6683 13.668-35.8291 0-49.4974-13.669-13.66839-35.8294-13.66839-49.4977 0l49.4977 49.4974Zm-112.4977 0 31.5 31.5 49.4974-49.4974-31.5-31.5-49.4974 49.4974Zm80.9974 31.5 31.5003-31.5-49.4977-49.4974-31.5 31.5 49.4974 49.4974Z"></path></symbol><symbol id="bbburst-shape-8" viewBox="0 0 87 168"><path d="m12 12 31.2546 18.0749c16.4102 9.4902 20.014 31.6325 7.4603 45.8369L36.3296 92.1884c-12.5684 14.2206-8.9394 36.3916 7.5068 45.8636L75 156" stroke-width="14" stroke-linecap="round" stroke-linejoin="round"></path></symbol><symbol id="bbburst-shape-10" viewBox="0 0 145 145"><circle cx="72.5" cy="72.5" r="61.5" fill="none" stroke-width="22"></circle></symbol></defs><use xlink:href="#bbburst-shape-10" width="23.881873476303728" opacity="0.5145087710062759" transform="matrix(0.8840348753446845,-0.46742094430428355,0.46742094430428355,0.8840348753446845,400.77627664348086,143.6537360490517)" fill="none" stroke="#a55f3d44"></use><use xlink:href="#bbburst-shape-10" width="7.521848465349792" opacity="0.9034785601696974" transform="matrix(0.7362810987812981,0.6766758038953399,-0.6766758038953399,0.7362810987812981,709.3573672574291,115.90244728084878)" fill="none" stroke="#42619144"></use><use xlink:href="#bbburst-shape-6" width="10.119425048572884" opacity="0.6873710311417494" transform="matrix(0.9402163323536683,0.34057781544812393,-0.34057781544812393,0.9402163323536683,550.196562092695,161.62196955045295)" fill="#42619144"></use><use xlink:href="#bbburst-shape-6" width="27.965703352735574" opacity="0.12521117114915592" transform="matrix(0.8401119592457631,-0.5424130307544661,0.5424130307544661,0.8401119592457631,542.3309038163592,203.0361422404016)" fill="#42619144"></use><use xlink:href="#bbburst-shape-10" width="11.15024906852655" opacity="0.6914438817501671" transform="matrix(0.9996720616635348,-0.025607989561421445,0.025607989561421445,0.9996720616635348,309.4545384986334,117.29945335098927)" fill="none" stroke="#42619144"></use><use xlink:href="#bbburst-shape-1" width="10.99847913849431" opacity="0.7135556777734844" transform="matrix(0.8542610865569801,0.5198442035788106,-0.5198442035788106,0.8542610865569801,592.9040888651174,183.93440506458467)" fill="#a55f3d44"></use><use xlink:href="#bbburst-shape-6" width="17.278514695124066" opacity="0.48296619754579684" transform="matrix(0.7156266393393106,-0.6984830084317902,0.6984830084317902,0.7156266393393106,-92.54132484905821,226.07716350168153)" fill="#42619144"></use><use xlink:href="#bbburst-shape-6" width="27.542238253811412" opacity="0.3054234582437375" transform="matrix(0.7118034471212199,0.7023787102883662,-0.7023787102883662,0.7118034471212199,456.1635182733077,-121.27398509770347)" fill="#a55f3d44"></use><use xlink:href="#bbburst-shape-6" width="29.19839633941556" opacity="0.3301581106089633" transform="matrix(0.9883737598529027,0.1520437793342323,-0.1520437793342323,0.9883737598529027,435.52088459874085,303.6639910918899)" fill="#a55f3d44"></use><use xlink:href="#bbburst-shape-4" width="27.530149712521585" opacity="0.43723158025329134" transform="matrix(0.819117406507092,0.5736259010514566,-0.5736259010514566,0.819117406507092,594.9905201984791,-187.70611364346416)" fill="#42619144"></use><use xlink:href="#bbburst-shape-8" width="29.084249244070726" opacity="0.2311013919742556" transform="matrix(0.7354746772007633,-0.6775522114172701,0.6775522114172701,0.7354746772007633,-56.32593701331186,-183.05154738628812)" fill="none" stroke="#42619144"></use><use xlink:href="#bbburst-shape-6" width="4.494973863978822" opacity="0.9460183922517061" transform="matrix(0.9765282905103464,0.21538917761331586,-0.21538917761331586,0.9765282905103464,460.47660530387384,15.115473114676604)" fill="#42619144"></use><use xlink:href="#bbburst-shape-4" width="17.450692824352043" opacity="0.598987481024341" transform="matrix(0.9015243678072868,-0.43272833770123237,0.43272833770123237,0.9015243678072868,89.30093585371279,-82.23736170316567)" fill="#42619144"></use><use xlink:href="#bbburst-shape-6" width="16.49908445115946" opacity="0.6093975623897989" transform="matrix(0.9588382986848443,0.28395266678647935,-0.28395266678647935,0.9588382986848443,637.517815830897,130.3630874765314)" fill="#a55f3d44"></use><use xlink:href="#bbburst-shape-10" width="6.740049359196237" opacity="0.9024524947888432" transform="matrix(0.9993590366494145,0.03579826625905624,-0.03579826625905624,0.9993590366494145,398.6365257584754,42.269279517398104)" fill="none" stroke="#a55f3d44"></use><use xlink:href="#bbburst-shape-6" width="9.55894664216192" opacity="0.8320880093157011" transform="matrix(0.9222462619694861,-0.38660293879290425,0.38660293879290425,0.9222462619694861,260.0033608135706,106.06832256453646)" fill="#a55f3d44"></use><use xlink:href="#bbburst-shape-6" width="35.9439183678619" opacity="0.2860412744524792" transform="matrix(0.7111449691588193,-0.7030453988471171,0.7030453988471171,0.7111449691588193,330.4969797058886,358.01106052949893)" fill="#42619144"></use><use xlink:href="#bbburst-shape-6" width="5.057969535996447" opacity="0.9887703205387807" transform="matrix(0.9145459004880616,0.40448213298053165,-0.40448213298053165,0.9145459004880616,558.4586408077209,38.107823815713914)" fill="#a55f3d44"></use><use xlink:href="#bbburst-shape-4" width="8.514426913263401" opacity="0.8657433503851194" transform="matrix(0.8736304865400788,0.48658994336889577,-0.48658994336889577,0.8736304865400788,531.7602389120367,60.770635429404365)" fill="#a55f3d44"></use><use xlink:href="#bbburst-shape-6" width="4.343715910455531" opacity="0.9516461706032339" transform="matrix(0.7837946588173756,0.6210200744012657,-0.6210200744012657,0.7837946588173756,631.7044222173334,100.89491340525956)" fill="#42619144"></use><use xlink:href="#bbburst-shape-10" width="16.251355284804426" opacity="0.6667958491078132" transform="matrix(0.7969682422852276,-0.6040212088898823,0.6040212088898823,0.7969682422852276,250.46938290122276,-26.882360274402686)" fill="none" stroke="#a55f3d44"></use><use xlink:href="#bbburst-shape-6" width="24.31844014635032" opacity="0.48002232672817047" transform="matrix(0.983351132534571,0.18171557484975423,-0.18171557484975423,0.983351132534571,275.3012511767721,-138.26512733009162)" fill="#a55f3d44"></use><use xlink:href="#bbburst-shape-8" width="22.332834070896883" opacity="0.6024761955489708" transform="matrix(0.7348156532021569,-0.6782668765383487,0.6782668765383487,0.7348156532021569,296.67187607411086,82.67430518742708)" fill="none" stroke="#a55f3d44"></use><use xlink:href="#bbburst-shape-10" width="10.93357565354804" opacity="0.6977166393401564" transform="matrix(0.9594360540852974,-0.28192633456496075,0.28192633456496075,0.9594360540852974,273.4071545230414,-117.99000832262516)" fill="none" stroke="#a55f3d44"></use><use xlink:href="#bbburst-shape-8" width="34.23948085266954" opacity="-0.09413544192286838" transform="matrix(0.9240225310018259,-0.38233802086763463,0.38233802086763463,0.9240225310018259,577.7235241442625,-312.8812347218887)" fill="none" stroke="#42619144"></use><use xlink:href="#bbburst-shape-10" width="10.540001529996818" opacity="0.7706598405121993" transform="matrix(0.8313276110552414,0.5557826941325046,-0.5557826941325046,0.8313276110552414,597.0621714987889,165.6108721325051)" fill="none" stroke="#42619144"></use><use xlink:href="#bbburst-shape-8" width="23.557436534141512" opacity="0.16767226913343314" transform="matrix(0.9523838249097584,0.30490170555485363,-0.30490170555485363,0.9523838249097584,136.61063881747955,33.08779034002987)" fill="none" stroke="#a55f3d44"></use><use xlink:href="#bbburst-shape-1" width="35.11298533146223" opacity="0.22897615561420914" transform="matrix(0.9579075381970112,-0.28707690305097927,0.28707690305097927,0.9579075381970112,423.01629222544534,-288.6671845228266)" fill="#42619144"></use><use xlink:href="#bbburst-shape-8" width="12.118278732596508" opacity="0.7455863975839045" transform="matrix(0.8317626185070269,0.5551314677212362,-0.5551314677212362,0.8317626185070269,691.078342604735,-23.36912574925799)" fill="none" stroke="#a55f3d44"></use><use xlink:href="#bbburst-shape-6" width="6.8036484177799075" opacity="0.9289669704689998" transform="matrix(0.9941919915364354,0.10762102008816046,-0.10762102008816046,0.9941919915364354,422.78253767754046,-25.184861658861678)" fill="#a55f3d44"></use><use xlink:href="#bbburst-shape-6" width="22.00223142117841" opacity="0.5211788809479223" transform="matrix(0.8005680622769862,-0.5992418357074809,0.5992418357074809,0.8005680622769862,205.70953938912388,294.90312759992116)" fill="#a55f3d44"></use><use xlink:href="#bbburst-shape-10" width="13.302876003582295" opacity="0.592171578433508" transform="matrix(0.8888866297055983,0.4581272307237616,-0.4581272307237616,0.8888866297055983,421.8560767136216,-56.0996985615256)" fill="none" stroke="#42619144"></use><use xlink:href="#bbburst-shape-4" width="20.902706365369948" opacity="0.32848687524009246" transform="matrix(0.8182276601659687,0.5748943347601576,-0.5748943347601576,0.8182276601659687,776.4936143157188,326.0570796029442)" fill="#42619144"></use><use xlink:href="#bbburst-shape-6" width="12.057708906067703" opacity="0.7468101369087469" transform="matrix(0.7485492219824761,-0.6630792277469034,0.6630792277469034,0.7485492219824761,57.18704588356678,191.9981764222092)" fill="#42619144"></use><use xlink:href="#bbburst-shape-1" width="11.233837895159668" opacity="0.7299996386971781" transform="matrix(0.955626250640947,0.2945818546447251,-0.2945818546447251,0.955626250640947,632.1821550267309,36.82321673754865)" fill="#42619144"></use><use xlink:href="#bbburst-shape-6" width="5.666432044698093" opacity="0.904739328149836" transform="matrix(0.8062549431161464,0.5915682265814989,-0.5915682265814989,0.8062549431161464,606.5361536488671,108.44697764199543)" fill="#a55f3d44"></use><use xlink:href="#bbburst-shape-10" width="29.132975041601462" opacity="0.35860908477895326" transform="matrix(0.8753824919495293,-0.4834309596914872,0.4834309596914872,0.8753824919495293,-46.68886583442634,-102.58928224021545)" fill="none" stroke="#42619144"></use><use xlink:href="#bbburst-shape-1" width="18.878524030993617" opacity="0.6140543479480849" transform="matrix(0.8237777004093964,0.566912956553479,-0.566912956553479,0.8237777004093964,667.3363731715709,-101.64881201421863)" fill="#42619144"></use><use xlink:href="#bbburst-shape-10" width="18.814285547299022" opacity="0.5987174093825015" transform="matrix(0.7396196706685204,0.6730250684485604,-0.6730250684485604,0.7396196706685204,511.9081331408785,197.8445813360758)" fill="none" stroke="#a55f3d44"></use><use xlink:href="#bbburst-shape-4" width="13.08479598137408" opacity="0.6381812048782842" transform="matrix(0.7710751486600947,-0.6367441520099048,0.6367441520099048,0.7710751486600947,84.36335526310842,248.66594690017882)" fill="#a55f3d44"></use><use xlink:href="#bbburst-shape-8" width="28.387892393899484" opacity="0.02866255725406397" transform="matrix(0.7943800895214225,0.6074210017540855,-0.6074210017540855,0.7943800895214225,995.79932411466,315.46219512083405)" fill="none" stroke="#42619144"></use><use xlink:href="#bbburst-shape-6" width="16.911000229339567" opacity="0.49801570888378954" transform="matrix(0.7681039308185657,-0.6403251919619187,0.6403251919619187,0.7681039308185657,-38.62172126117994,239.78022214769732)" fill="#a55f3d44"></use><use xlink:href="#bbburst-shape-10" width="11.392772310946592" opacity="0.7036491967293061" transform="matrix(0.9315814095790664,-0.36353277338732437,0.36353277338732437,0.9315814095790664,118.0672044563654,53.25970513217095)" fill="none" stroke="#a55f3d44"></use><use xlink:href="#bbburst-shape-8" width="14.114388798078249" opacity="0.775621774833267" transform="matrix(0.9961897966851739,0.08721174794918271,-0.08721174794918271,0.9961897966851739,511.30998811350554,-55.925748978997376)" fill="none" stroke="#42619144"></use><use xlink:href="#bbburst-shape-10" width="6.732884171510281" opacity="0.9143936650820477" transform="matrix(0.791650882261973,-0.6109737151578942,0.6109737151578942,0.791650882261973,160.23493108531864,47.569561304001695)" fill="none" stroke="#42619144"></use><use xlink:href="#bbburst-shape-6" width="20.112922702003004" opacity="0.4308702076951718" transform="matrix(0.9706314884180576,0.24057122373913745,-0.24057122373913745,0.9706314884180576,585.03550855797,245.70900876673176)" fill="#42619144"></use><use xlink:href="#bbburst-shape-6" width="10.901565946850297" opacity="0.7426048730446924" transform="matrix(0.9216242410984447,0.3880834423416128,-0.3880834423416128,0.9216242410984447,443.98603561279276,75.41519281760617)" fill="#42619144"></use><use xlink:href="#bbburst-shape-6" width="9.75174535780569" opacity="0.7761749115383867" transform="matrix(0.7363992336469606,-0.6765472405413898,0.6765472405413898,0.7363992336469606,26.950852678525052,128.11655083266623)" fill="#a55f3d44"></use><use xlink:href="#bbburst-shape-6" width="27.183528812831884" opacity="0.36503470584078446" transform="matrix(0.9553584419917392,-0.2954492296742651,0.2954492296742651,0.9553584419917392,1.6224543682125443,123.07227363275791)" fill="#a55f3d44"></use><use xlink:href="#bbburst-shape-4" width="6.8304660206552" opacity="0.8580184568645689" transform="matrix(0.8837897157810071,0.46788432147244124,-0.46788432147244124,0.8837897157810071,541.801322776522,92.74791808444229)" fill="#42619144"></use><use xlink:href="#bbburst-shape-10" width="11.383325466652838" opacity="0.772067075468839" transform="matrix(0.8749507589851553,-0.4842119054208609,0.4842119054208609,0.8749507589851553,296.79461410354907,90.30020203003136)" fill="none" stroke="#a55f3d44"></use><use xlink:href="#bbburst-shape-1" width="28.340414030508544" opacity="0.35071815891948155" transform="matrix(0.7125733078432964,-0.7015976631583536,0.7015976631583536,0.7125733078432964,-128.3159669744452,294.971007152459)" fill="#42619144"></use><use xlink:href="#bbburst-shape-6" width="13.211690060334423" opacity="0.6975418681774102" transform="matrix(0.9721430841498243,-0.23438819070010236,0.23438819070010236,0.9721430841498243,190.49108714309722,93.75563765364109)" fill="#42619144"></use><use xlink:href="#bbburst-shape-1" width="7.285772215634075" opacity="0.8997364161056748" transform="matrix(0.713441871470596,0.7007144183135763,-0.7007144183135763,0.713441871470596,698.852671608614,151.91971776497257)" fill="#a55f3d44"></use><use xlink:href="#bbburst-shape-6" width="23.284401144267804" opacity="0.46762316705206175" transform="matrix(0.7777364330912313,-0.6285905190523705,0.6285905190523705,0.7777364330912313,61.87832339901223,-130.41908184325328)" fill="#a55f3d44"></use><use xlink:href="#bbburst-shape-6" width="7.917278559672711" opacity="0.8061468287735444" transform="matrix(0.8609601464363105,-0.5086724154584823,0.5086724154584823,0.8609601464363105,206.8363056797563,-28.51962450347031)" fill="#a55f3d44"></use><use xlink:href="#bbburst-shape-6" width="6.461423093285018" opacity="0.8907294804419664" transform="matrix(0.7468999425397261,-0.6649364449585794,0.6649364449585794,0.7468999425397261,87.05149151412962,124.17724403056081)" fill="#a55f3d44"></use><use xlink:href="#bbburst-shape-10" width="13.689432407040712" opacity="0.6425937917065145" transform="matrix(0.8316609451402767,-0.5552837763958008,0.5552837763958008,0.8316609451402767,59.968596010672854,186.34332418228757)" fill="none" stroke="#42619144"></use><use xlink:href="#bbburst-shape-8" width="6.218318216111299" opacity="0.8873184028641464" transform="matrix(0.7278033777694504,-0.6857858582001956,0.6857858582001956,0.7278033777694504,77.66330247519357,89.16504936218706)" fill="none" stroke="#a55f3d44"></use><use xlink:href="#bbburst-shape-1" width="29.17543058393408" opacity="0.42425883820349164" transform="matrix(0.8819302646069865,0.4713798981397602,-0.4713798981397602,0.8819302646069865,712.5885671931705,-179.56364706867294)" fill="#a55f3d44"></use><use xlink:href="#bbburst-shape-10" width="16.406872834238662" opacity="0.6698545276669459" transform="matrix(0.9838711144241847,0.17887881428976635,-0.17887881428976635,0.9838711144241847,326.8596613180207,63.34913508481969)" fill="none" stroke="#42619144"></use><use xlink:href="#bbburst-shape-10" width="6.2970045385347015" opacity="0.8635557623462973" transform="matrix(0.8635253007907311,0.5043055174140745,-0.5043055174140745,0.8635253007907311,584.0877600390035,112.56273473461766)" fill="none" stroke="#42619144"></use><use xlink:href="#bbburst-shape-4" width="31.53662193167849" opacity="0.09650831960444184" transform="matrix(0.9164276582982592,-0.40020038369043215,0.40020038369043215,0.9164276582982592,-139.26344784630703,-139.8501843818839)" fill="#42619144"></use><use xlink:href="#bbburst-shape-8" width="9.646776400930417" opacity="0.7853051905653898" transform="matrix(0.792375936936806,-0.6100330930068621,0.6100330930068621,0.792375936936806,172.44980306256602,180.45117910725645)" fill="none" stroke="#42619144"></use><use xlink:href="#bbburst-shape-1" width="15.937554669156906" opacity="0.6714959802426257" transform="matrix(0.7779008401490973,-0.6283870486374846,0.6283870486374846,0.7779008401490973,279.9047800671858,39.44379343283646)" fill="#a55f3d44"></use><use xlink:href="#bbburst-shape-10" width="4.472702179968165" opacity="0.9702051950153261" transform="matrix(0.982022821713953,0.18876222512188612,-0.18876222512188612,0.982022821713953,466.0366670359868,-4.495472125146762)" fill="none" stroke="#42619144"></use><use xlink:href="#bbburst-shape-10" width="24.254910512768973" opacity="0.21614530220123052" transform="matrix(0.7612685315959492,0.6484367531238088,-0.6484367531238088,0.7612685315959492,701.8854259245459,-261.29015985317614)" fill="none" stroke="#a55f3d44"></use><use xlink:href="#bbburst-shape-4" width="6.230035061980024" opacity="0.8913006998237955" transform="matrix(0.9297311479071066,-0.3682390427580077,0.3682390427580077,0.9297311479071066,251.84595535287286,78.13218894571156)" fill="#a55f3d44"></use><use xlink:href="#bbburst-shape-4" width="39.449418403445215" opacity="0.21401016080416568" transform="matrix(0.7279028605085406,0.6856802648928173,-0.6856802648928173,0.7279028605085406,961.0990142367018,280.7409312169265)" fill="#42619144"></use><use xlink:href="#bbburst-shape-6" width="6.122691890190265" opacity="0.8957188385131091" transform="matrix(0.9945722985173825,-0.10404779200853137,0.10404779200853137,0.9945722985173825,397.23545114592594,-18.642014039075093)" fill="#a55f3d44"></use><use xlink:href="#bbburst-shape-1" width="12.852932487150248" opacity="0.7282119121071053" transform="matrix(0.9947781305515492,-0.10206111392868927,0.10206111392868927,0.9947781305515492,388.670706721431,119.68242507372821)" fill="#42619144"></use><use xlink:href="#bbburst-shape-4" width="15.695045555767216" opacity="0.6495058801072973" transform="matrix(0.9051298522407931,-0.4251352144701261,0.4251352144701261,0.9051298522407931,74.3572148106991,-11.868061269822022)" fill="#42619144"></use><use xlink:href="#bbburst-shape-4" width="7.195762095060502" opacity="0.8346906617539648" transform="matrix(0.9205957246355436,0.3905169801465211,-0.3905169801465211,0.9205957246355436,578.7667235908718,-39.381519826801025)" fill="#42619144"></use><use xlink:href="#bbburst-shape-6" width="20.33525838853516" opacity="0.5378980115189325" transform="matrix(0.8664553304904463,0.49925460465046423,-0.49925460465046423,0.8664553304904463,383.2902127221653,60.30130765418107)" fill="#a55f3d44"></use><use xlink:href="#bbburst-shape-4" width="29.505273205674023" opacity="0.024516528364451506" transform="matrix(0.9746469386945483,-0.22374839640396404,0.22374839640396404,0.9746469386945483,663.2702391166943,-227.15404069625183)" fill="#42619144"></use><use xlink:href="#bbburst-shape-1" width="15.497690169173392" opacity="0.6130648910325842" transform="matrix(0.9998884460593307,0.014936379650271388,-0.014936379650271388,0.9998884460593307,305.76819469592203,147.49395589550426)" fill="#a55f3d44"></use><use xlink:href="#bbburst-shape-10" width="18.47207758517277" opacity="0.6206286583575176" transform="matrix(0.9246742253987605,0.380759211160022,-0.380759211160022,0.9246742253987605,627.4015973884,-122.21171027428508)" fill="none" stroke="#a55f3d44"></use><use xlink:href="#bbburst-shape-10" width="5.250558001776954" opacity="0.9750071157562947" transform="matrix(0.9692994139106395,0.2458833995870623,-0.2458833995870623,0.9692994139106395,506.97308213621153,12.993593677696822)" fill="none" stroke="#42619144"></use><use xlink:href="#bbburst-shape-6" width="15.8819268755425" opacity="0.5824663644975077" transform="matrix(0.8745187571373826,-0.4849916941710318,0.4849916941710318,0.8745187571373826,385.9341421247255,73.54636758772119)" fill="#a55f3d44"></use><use xlink:href="#bbburst-shape-6" width="28.10857460205682" opacity="0.21750474088239613" transform="matrix(0.7445545823368159,-0.6675615881109769,0.6675615881109769,0.7445545823368159,469.6163043409993,52.3263878800376)" fill="#a55f3d44"></use><use xlink:href="#bbburst-shape-4" width="7.888606148866154" opacity="0.8454676496681357" transform="matrix(0.9999282582903942,0.011978241621312795,-0.011978241621312795,0.9999282582903942,470.3864231525095,-0.21957982514089736)" fill="#a55f3d44"></use><use xlink:href="#bbburst-shape-6" width="27.406503811006598" opacity="0.38991430310150654" transform="matrix(0.9846002404874583,-0.17482095535730022,0.17482095535730022,0.9846002404874583,173.07939159610532,-225.49365565736375)" fill="#42619144"></use><use xlink:href="#bbburst-shape-6" width="15.83017773635882" opacity="0.5829154068112263" transform="matrix(0.9970929573337532,-0.07619471395989429,0.07619471395989429,0.9970929573337532,374.4311188434648,-185.48494211363897)" fill="#a55f3d44"></use><use xlink:href="#bbburst-shape-8" width="12.29065930798243" opacity="0.6193453855585009" transform="matrix(0.8703931223293254,0.4923574033177607,-0.4923574033177607,0.8703931223293254,494.94254507340395,-92.60541229655132)" fill="none" stroke="#a55f3d44"></use><use xlink:href="#bbburst-shape-6" width="6.759048401099761" opacity="0.8708403591030385" transform="matrix(0.9610010975733562,-0.2765445542092715,0.2765445542092715,0.9610010975733562,266.1109772405175,-38.02958792479075)" fill="#42619144"></use><use xlink:href="#bbburst-shape-10" width="22.632909665627942" opacity="0.2996849073684572" transform="matrix(0.7592687603635934,0.650777188856472,-0.650777188856472,0.7592687603635934,619.5123370602714,-224.56378213253237)" fill="none" stroke="#a55f3d44"></use><use xlink:href="#bbburst-shape-10" width="8.774532844526185" opacity="0.8842155989674064" transform="matrix(0.9981957311218753,0.060044003614555225,-0.060044003614555225,0.9981957311218753,458.7649405998689,34.865005118428314)" fill="none" stroke="#42619144"></use><use xlink:href="#bbburst-shape-8" width="10.81620587255867" opacity="0.7501887005566128" transform="matrix(0.8177361283131873,-0.5755932804084483,0.5755932804084483,0.8177361283131873,52.963141012624334,73.09816618631163)" fill="none" stroke="#a55f3d44"></use><use xlink:href="#bbburst-shape-6" width="18.86700228843197" opacity="0.5458332555464616" transform="matrix(0.9313876475746609,0.3640289136117342,-0.3640289136117342,0.9313876475746609,630.7145930689425,205.5432868986274)" fill="#42619144"></use><use xlink:href="#bbburst-shape-4" width="36.99847012259842" opacity="0.1543590403747207" transform="matrix(0.9254345483743663,0.3789075041156252,-0.3789075041156252,0.9254345483743663,419.226183001146,-339.83322976693154)" fill="#42619144"></use><use xlink:href="#bbburst-shape-6" width="5.506287802659141" opacity="0.9741240222003018" transform="matrix(0.8185868816519295,-0.5743827270969855,0.5743827270969855,0.8185868816519295,173.01080223109545,63.63897390115898)" fill="#42619144"></use><use xlink:href="#bbburst-shape-10" width="13.401404474731667" opacity="0.6380986778798905" transform="matrix(0.9450310861782377,-0.3269804981291396,0.3269804981291396,0.9450310861782377,244.32293953857985,-137.6168313475037)" fill="none" stroke="#42619144"></use><use xlink:href="#bbburst-shape-6" width="15.563487790145855" opacity="0.7038053971791327" transform="matrix(0.8979814284419086,-0.4400333557509354,0.4400333557509354,0.8979814284419086,338.05309125136944,100.0121885734871)" fill="#a55f3d44"></use><use xlink:href="#bbburst-shape-1" width="20.0071484807938" opacity="0.1339841388235179" transform="matrix(0.9933406432247721,-0.11521443710662269,0.11521443710662269,0.9933406432247721,465.8138346759321,-366.3313520190489)" fill="#a55f3d44"></use><use xlink:href="#bbburst-shape-10" width="5.785310815620754" opacity="0.9305985778757317" transform="matrix(0.9715701261993648,0.23675195854934433,-0.23675195854934433,0.9715701261993648,478.5607949346041,38.93025559274298)" fill="none" stroke="#a55f3d44"></use><use xlink:href="#bbburst-shape-10" width="24.246672654917123" opacity="0.20884434719886524" transform="matrix(0.9690114905262915,0.24701564976335957,-0.24701564976335957,0.9690114905262915,802.0294098892697,-156.56207160951925)" fill="none" stroke="#42619144"></use><use xlink:href="#bbburst-shape-8" width="15.555957045769002" opacity="0.5581427157735019" transform="matrix(0.891058116241686,-0.45388923040739587,0.45388923040739587,0.891058116241686,335.96019739913197,202.1836183719107)" fill="none" stroke="#a55f3d44"></use><use xlink:href="#bbburst-shape-6" width="16.759412074314714" opacity="0.6637178474869341" transform="matrix(0.921281937760665,-0.3888953473056139,0.3888953473056139,0.921281937760665,387.8948139431003,41.57214983731882)" fill="#42619144"></use><use xlink:href="#bbburst-shape-6" width="26.735571441088478" opacity="0.39058906238236724" transform="matrix(0.9485615878055013,-0.3165926628017558,0.3165926628017558,0.9485615878055013,305.52428945318843,295.3517528376377)" fill="#42619144"></use><use xlink:href="#bbburst-shape-1" width="31.012998353083642" opacity="0.18780486959657705" transform="matrix(0.989562290943141,-0.14410576790455795,0.14410576790455795,0.989562290943141,155.13525989189884,328.9974743581441)" fill="#42619144"></use><use xlink:href="#bbburst-shape-4" width="10.824627452518914" opacity="0.8125039636475212" transform="matrix(0.9948558062149099,0.10130115912703933,-0.10130115912703933,0.9948558062149099,516.0131941011401,-22.51322335875949)" fill="#a55f3d44"></use><use xlink:href="#bbburst-shape-8" width="12.026542613595378" opacity="0.7969846010986696" transform="matrix(0.9823010214504146,0.18730911151749147,-0.18730911151749147,0.9823010214504146,526.6423454622519,76.84322443088848)" fill="none" stroke="#42619144"></use><use xlink:href="#bbburst-shape-1" width="41.13971442697585" opacity="-0.10491071778061789" transform="matrix(0.9224690386740749,0.3860710720679912,-0.3860710720679912,0.9224690386740749,888.588082642523,373.1184786955224)" fill="#42619144"></use><use xlink:href="#bbburst-shape-1" width="15.189389579778823" opacity="0.5509630164179268" transform="matrix(0.9096210323558409,-0.41543901778226633,0.41543901778226633,0.9096210323558409,188.3551801556188,237.67612791077352)" fill="#a55f3d44"></use><use xlink:href="#bbburst-shape-6" width="6.738612468950468" opacity="0.9165389346836926" transform="matrix(0.8920284768862484,-0.4519791991054454,0.4519791991054454,0.8920284768862484,185.97996795451525,22.414844184320657)" fill="#42619144"></use><use xlink:href="#bbburst-shape-10" width="26.34595967684134" opacity="0.3256530714964053" transform="matrix(0.9721094674643302,-0.234527574639351,0.234527574639351,0.9721094674643302,189.49874062079869,299.365967803509)" fill="none" stroke="#a55f3d44"></use><use xlink:href="#bbburst-shape-8" width="14.004221332465743" opacity="0.6976297214649805" transform="matrix(0.9138134697971529,-0.4061341433778844,0.4061341433778844,0.9138134697971529,342.5465100088418,-40.81250050842533)" fill="none" stroke="#42619144"></use><use xlink:href="#bbburst-shape-4" width="22.790002068195754" opacity="0.5504092305317597" transform="matrix(0.9759921905665687,0.21780551864695843,-0.21780551864695843,0.9759921905665687,602.8613030238143,-150.45603361331092)" fill="#a55f3d44"></use><use xlink:href="#bbburst-shape-8" width="7.359567202546817" opacity="0.8226636785759517" transform="matrix(0.9447466798415707,-0.32780132844198284,0.32780132844198284,0.9447466798415707,244.78376372555684,100.39908053265282)" fill="none" stroke="#42619144"></use><use xlink:href="#bbburst-shape-10" width="14.475123415550005" opacity="0.7797295790956645" transform="matrix(0.980207067704947,-0.1979750095877493,0.1979750095877493,0.980207067704947,412.76858918539995,5.657571915755568)" fill="none" stroke="#42619144"></use><use xlink:href="#bbburst-shape-4" width="22.661263418473116" opacity="0.12703019241598823" transform="matrix(0.9748712099504031,-0.22276921692603086,0.22276921692603086,0.9748712099504031,670.6245183718655,-117.20183669719648)" fill="#42619144"></use><use xlink:href="#bbburst-shape-8" width="32.02768411070678" opacity="-0.10553193930975957" transform="matrix(0.9998654070376303,0.016406334431368574,-0.016406334431368574,0.9998654070376303,48.459172385073344,-361.41377319718646)" fill="none" stroke="#42619144"></use><use xlink:href="#bbburst-shape-10" width="11.639252767093101" opacity="0.6814419477011598" transform="matrix(0.8875718872678402,0.4606692359294295,-0.4606692359294295,0.8875718872678402,457.3155533912907,-33.32400029114143)" fill="none" stroke="#a55f3d44"></use><use xlink:href="#bbburst-shape-10" width="13.521970939133869" opacity="0.630629426184074" transform="matrix(0.999052937871843,-0.04351123222386701,0.04351123222386701,0.999052937871843,534.8193282888446,49.18973588439218)" fill="none" stroke="#42619144"></use><use xlink:href="#bbburst-shape-1" width="12.804277425655705" opacity="0.6714180151652277" transform="matrix(0.9100327415043209,-0.41453637885007144,0.41453637885007144,0.9100327415043209,172.02219864318425,-98.05004118060191)" fill="#a55f3d44"></use><use xlink:href="#bbburst-shape-8" width="37.344165915356115" opacity="0.1602687320646926" transform="matrix(0.970049250125536,0.2429083208350123,-0.2429083208350123,0.970049250125536,111.12959208606782,-78.73429659302968)" fill="none" stroke="#42619144"></use><use xlink:href="#bbburst-shape-4" width="20.706414678329313" opacity="0.5338353698465068" transform="matrix(0.9898127171058954,0.14237550721751546,-0.14237550721751546,0.9898127171058954,345.4510478267082,-181.10278447516185)" fill="#a55f3d44"></use><use xlink:href="#bbburst-shape-6" width="18.63646935777508" opacity="0.4795177827961902" transform="matrix(0.887725368506357,-0.46037340291360523,0.46037340291360523,0.887725368506357,55.629785801404154,-129.0390589611941)" fill="#a55f3d44"></use><use xlink:href="#bbburst-shape-1" width="23.93377268130334" opacity="0.3853744366851176" transform="matrix(0.8255057968856228,-0.5643936386142502,0.5643936386142502,0.8255057968856228,418.72407136158245,185.23735802190458)" fill="#a55f3d44"></use><use xlink:href="#bbburst-shape-6" width="6.638162689351301" opacity="0.9344291909053463" transform="matrix(0.9994575889283892,0.03293217170869568,-0.03293217170869568,0.9994575889283892,422.1083563775561,26.950326423648846)" fill="#a55f3d44"></use><use xlink:href="#bbburst-shape-4" width="10.794018153087192" opacity="0.7011973582757093" transform="matrix(0.9999315037835979,0.011704176223580887,-0.011704176223580887,0.9999315037835979,302.46634708521367,-93.33179976686097)" fill="#42619144"></use><use xlink:href="#bbburst-shape-6" width="25.281680041863062" opacity="0.43040101466882474" transform="matrix(0.94213331662466,0.3352384430607834,-0.3352384430607834,0.94213331662466,284.721407136447,-77.58073399039722)" fill="#42619144"></use><use xlink:href="#bbburst-shape-10" width="41.0151635863766" opacity="0.10710387747004146" transform="matrix(0.8969862447419432,-0.4420584539896809,0.4420584539896809,0.8969862447419432,-62.9952545532432,-249.2976645534784)" fill="none" stroke="#42619144"></use><use xlink:href="#bbburst-shape-4" width="25.904711754440317" opacity="0.21889628023485075" transform="matrix(0.8661302917493908,-0.4998182846936625,0.4998182846936625,0.8661302917493908,127.2753947866245,406.10062677889033)" fill="#a55f3d44"></use><use xlink:href="#bbburst-shape-4" width="10.88554772571694" opacity="0.8119745667791679" transform="matrix(0.8010368828522512,-0.5986149950597202,0.5986149950597202,0.8010368828522512,95.91046561082149,142.21677149001522)" fill="#42619144"></use><use xlink:href="#bbburst-shape-6" width="9.640021335711106" opacity="0.7531603664270277" transform="matrix(0.8887540091951348,-0.45838445778579173,0.45838445778579173,0.8887540091951348,218.65909765807052,157.60713282893772)" fill="#a55f3d44"></use><use xlink:href="#bbburst-shape-4" width="3.981872875614693" opacity="0.9729589834913888" transform="matrix(0.9976601897536426,0.06836772470051791,-0.06836772470051791,0.9976601897536426,413.3173220001709,2.544614152635404)" fill="#a55f3d44"></use><use xlink:href="#bbburst-shape-8" width="21.044918777816644" opacity="0.3876685374028379" transform="matrix(0.8052284660924279,0.5929646847784745,-0.5929646847784745,0.8052284660924279,901.093481135505,113.33637724558696)" fill="none" stroke="#a55f3d44"></use><use xlink:href="#bbburst-shape-4" width="29.423147794342416" opacity="0.20781480770677596" transform="matrix(0.9835245532770236,0.18077459196809464,-0.18077459196809464,0.9835245532770236,514.2410005747911,355.9496189496212)" fill="#42619144"></use><use xlink:href="#bbburst-shape-8" width="9.03567776366534" opacity="0.7406775769046248" transform="matrix(0.8406736766177221,-0.541542029248,0.541542029248,0.8406736766177221,132.40322177352968,-40.554350821229605)" fill="none" stroke="#a55f3d44"></use><use xlink:href="#bbburst-shape-4" width="6.091062286505909" opacity="0.9225524371921441" transform="matrix(0.8421027563729252,-0.5393171123829855,0.5393171123829855,0.8421027563729252,208.4346661452776,87.17772722664432)" fill="#42619144"></use><use xlink:href="#bbburst-shape-6" width="21.136883708594503" opacity="0.4256366288052469" transform="matrix(0.9922361196341689,-0.12436833557351816,0.12436833557351816,0.9922361196341689,209.58663665571908,227.70617792725056)" fill="#42619144"></use><use xlink:href="#bbburst-shape-6" width="10.131632240250452" opacity="0.7516393599589178" transform="matrix(0.933476461785803,0.3586386695433975,-0.3586386695433975,0.933476461785803,443.2148399305588,-33.24439850184956)" fill="#a55f3d44"></use><use xlink:href="#bbburst-shape-6" width="6.992044999724355" opacity="0.8304512357748423" transform="matrix(0.9966287778709912,0.0820431540067451,-0.0820431540067451,0.9966287778709912,407.90968238036425,-72.16574227103229)" fill="#42619144"></use><use xlink:href="#bbburst-shape-4" width="5.913372199713958" opacity="0.9332794953759077" transform="matrix(0.9515913629966375,0.3073660323949307,-0.3073660323949307,0.9515913629966375,490.2624749863229,15.40795559700581)" fill="#a55f3d44"></use><use xlink:href="#bbburst-shape-4" width="22.11012007348637" opacity="0.5382820963519859" transform="matrix(0.7488050756785888,0.6627902825464349,-0.6627902825464349,0.7488050756785888,464.757299338476,13.920904685123674)" fill="#42619144"></use><use xlink:href="#bbburst-shape-6" width="38.81476858148053" opacity="0.19257899258809807" transform="matrix(0.8806427830921898,-0.4737808444709878,0.4737808444709878,0.8806427830921898,-99.67523185588092,-157.82753857136981)" fill="#42619144"></use><use xlink:href="#bbburst-shape-6" width="28.3373490247576" opacity="0.2175069457267086" transform="matrix(0.817820393770243,-0.5754735472056771,0.5754735472056771,0.817820393770243,-155.00457043789794,241.89245047484724)" fill="#a55f3d44"></use><use xlink:href="#bbburst-shape-10" width="29.778233805144765" opacity="0.2817467616110977" transform="matrix(0.8713972070030638,0.4905781361080614,-0.4905781361080614,0.8713972070030638,689.9490962642785,349.23362896225825)" fill="none" stroke="#a55f3d44"></use><use xlink:href="#bbburst-shape-10" width="16.065062047028185" opacity="0.5384581917186473" transform="matrix(0.8636335871267024,-0.5041200523552547,0.5041200523552547,0.8636335871267024,60.18365525189654,219.57763253714768)" fill="none" stroke="#42619144"></use><use xlink:href="#bbburst-shape-6" width="10.827100115452012" opacity="0.707745776948242" transform="matrix(0.9647249564320711,-0.26325986864149753,0.26325986864149753,0.9647249564320711,419.79909169778574,-2.107740939921257)" fill="#42619144"></use><use xlink:href="#bbburst-shape-8" width="29.57609577709122" opacity="0.3483264473433212" transform="matrix(0.8203708801164822,-0.5718318101128236,0.5718318101128236,0.8203708801164822,434.11712375113507,-21.586806407503616)" fill="none" stroke="#42619144"></use><use xlink:href="#bbburst-shape-6" width="8.896025110405258" opacity="0.8439678242007436" transform="matrix(0.9722358895737251,0.23400293806870756,-0.23400293806870756,0.9722358895737251,486.96712828074874,-60.11158726342211)" fill="#a55f3d44"></use><use xlink:href="#bbburst-shape-4" width="25.368860437262242" opacity="0.17053490250820424" transform="matrix(0.7737105761096201,-0.633539220898059,0.633539220898059,0.7737105761096201,114.68792018374802,-274.03493779935485)" fill="#a55f3d44"></use><use xlink:href="#bbburst-shape-6" width="16.039137545545305" opacity="0.49481434239674316" transform="matrix(0.9646943216593259,-0.2633721051255297,0.2633721051255297,0.9646943216593259,509.4231890713508,62.823775858771114)" fill="#42619144"></use><use xlink:href="#bbburst-shape-4" width="8.141532696569435" opacity="0.8827318094195573" transform="matrix(0.9095594356909958,0.4155738597956773,-0.4155738597956773,0.9095594356909958,529.0191905932941,-6.278627718634539)" fill="#a55f3d44"></use><use xlink:href="#bbburst-shape-8" width="6.0961732723145055" opacity="0.857128089863661" transform="matrix(0.9552571400014389,-0.2957765989328287,0.2957765989328287,0.9552571400014389,223.9494915862275,-14.777782999813041)" fill="none" stroke="#42619144"></use><use xlink:href="#bbburst-shape-1" width="8.157967018203113" opacity="0.8276061201603654" transform="matrix(0.9389472863591668,-0.344061031560909,0.344061031560909,0.9389472863591668,216.9153543779617,-39.62437064563335)" fill="#42619144"></use><use xlink:href="#bbburst-shape-6" width="16.008108664525636" opacity="0.7026268882983461" transform="matrix(0.9059024497178452,-0.42348642433401207,0.42348642433401207,0.9059024497178452,279.34651866120356,-80.51188956825769)" fill="#42619144"></use><use xlink:href="#bbburst-shape-1" width="18.60285294893311" opacity="0.5461760749555065" transform="matrix(0.830460762701427,-0.5570771235774847,0.5570771235774847,0.830460762701427,85.25898881401443,259.0727173810763)" fill="#42619144"></use><use xlink:href="#bbburst-shape-4" width="5.246893620468795" opacity="0.9411924558817022" transform="matrix(0.9952152032758654,-0.09770721144612506,0.09770721144612506,0.9952152032758654,371.41198915823173,-20.815492637945965)" fill="#a55f3d44"></use><use xlink:href="#bbburst-shape-4" width="5.418802091954948" opacity="0.9570874806882325" transform="matrix(0.7094010400359342,-0.7048050541787672,0.7048050541787672,0.7094010400359342,114.44888133562438,137.38741165677675)" fill="#a55f3d44"></use><use xlink:href="#bbburst-shape-4" width="8.035918472506019" opacity="0.834477743592437" transform="matrix(0.8077427140532925,-0.5895351625593007,0.5895351625593007,0.8077427140532925,106.11679574958285,28.86017332946591)" fill="#a55f3d44"></use><use xlink:href="#bbburst-shape-10" width="8.220043527720339" opacity="0.7212741843680321" transform="matrix(0.8738572496511711,0.48618258631103894,-0.48618258631103894,0.8738572496511711,562.6859617474156,-73.75752641880507)" fill="none" stroke="#a55f3d44"></use><use xlink:href="#bbburst-shape-10" width="14.475042695528883" opacity="0.7329558210194367" transform="matrix(0.9331528317035533,-0.35947989190445667,0.35947989190445667,0.9331528317035533,134.82224427976124,-6.718801433441115)" fill="none" stroke="#a55f3d44"></use><use xlink:href="#bbburst-shape-1" width="27.5320062246422" opacity="0.29507123663526513" transform="matrix(0.9305134377967658,0.36625775361027446,-0.36625775361027446,0.9305134377967658,733.1339889259264,-223.88324417556566)" fill="#42619144"></use><use xlink:href="#bbburst-shape-4" width="13.268063971871065" opacity="0.5916559098477194" transform="matrix(0.9834210137536636,0.18133700589707685,-0.18133700589707685,0.9834210137536636,459.01259558625134,189.06204880017765)" fill="#42619144"></use><use xlink:href="#bbburst-shape-1" width="9.34625983680852" opacity="0.7620994223411571" transform="matrix(0.8117717962217,-0.5839747861500483,0.5839747861500483,0.8117717962217,78.13418359282511,143.77475601592676)" fill="#a55f3d44"></use><use xlink:href="#bbburst-shape-4" width="6.2354615387563825" opacity="0.8757624637188378" transform="matrix(0.793477419432652,0.6085996917929709,-0.6085996917929709,0.793477419432652,614.9371753325061,130.19595405250936)" fill="#a55f3d44"></use><use xlink:href="#bbburst-shape-8" width="28.9845077984464" opacity="0.10936249922096053" transform="matrix(0.9590070568328,0.28338218882789856,-0.28338218882789856,0.9590070568328,785.9569150226166,292.55200039415223)" fill="none" stroke="#42619144"></use><use xlink:href="#bbburst-shape-6" width="5.856696859021254" opacity="0.9235403831976566" transform="matrix(0.7893191269543813,-0.613983155977404,0.613983155977404,0.7893191269543813,186.12271774993474,80.97432236218958)" fill="#42619144"></use><use xlink:href="#bbburst-shape-4" width="10.11007744549585" opacity="0.7705116513681936" transform="matrix(0.948035997570908,0.3181630828831866,-0.3181630828831866,0.948035997570908,463.63615714528027,-65.68588252632173)" fill="#42619144"></use><use xlink:href="#bbburst-shape-4" width="5.059491941168595" opacity="0.92312462450717" transform="matrix(0.9848134212497285,0.17361602842596305,-0.17361602842596305,0.9848134212497285,437.2041477888914,23.294095254907518)" fill="#42619144"></use><use xlink:href="#bbburst-shape-4" width="30.67816379103222" opacity="0.014919430451763915" transform="matrix(0.908583120339599,0.4177040979377121,-0.4177040979377121,0.908583120339599,805.0435640478689,394.93657021736544)" fill="#42619144"></use><use xlink:href="#bbburst-shape-4" width="26.750872149904215" opacity="0.3769064124870265" transform="matrix(0.9775947277619268,0.2104959578046195,-0.2104959578046195,0.9775947277619268,699.2308115181215,169.21647809956664)" fill="#42619144"></use><use xlink:href="#bbburst-shape-10" width="20.71329858932151" opacity="0.49902580769463634" transform="matrix(0.9728090130528174,-0.2316087738476313,0.2316087738476313,0.9728090130528174,472.4011050753743,155.24540580036285)" fill="none" stroke="#a55f3d44"></use><use xlink:href="#bbburst-shape-10" width="7.432896512510755" opacity="0.8252053052004388" transform="matrix(0.9948268867036953,-0.1015847699777531,0.1015847699777531,0.9948268867036953,279.84831649991645,23.381537082970908)" fill="none" stroke="#42619144"></use><use xlink:href="#bbburst-shape-6" width="26.314904133776288" opacity="0.4430043102230963" transform="matrix(0.9961468296577115,0.08770116169635522,-0.08770116169635522,0.9961468296577115,600.9696956422307,-175.0685527593299)" fill="#42619144"></use><use xlink:href="#bbburst-shape-10" width="12.774964490117682" opacity="0.7091790834405226" transform="matrix(0.9998566457253634,0.016931863418571627,-0.016931863418571627,0.9998566457253634,361.16654455210255,124.80360371524472)" fill="none" stroke="#42619144"></use><use xlink:href="#bbburst-shape-10" width="5.3741081995637145" opacity="0.9076064956749178" transform="matrix(0.9284225231821737,-0.3715260669832552,0.3715260669832552,0.9284225231821737,208.28621445421703,20.707867096494567)" fill="none" stroke="#a55f3d44"></use><use xlink:href="#bbburst-shape-8" width="10.911396067928418" opacity="0.6152084779643477" transform="matrix(0.8856980774598248,0.46426168868857814,-0.46426168868857814,0.8856980774598248,600.7051981197744,215.20455675085037)" fill="none" stroke="#a55f3d44"></use><use xlink:href="#bbburst-shape-10" width="27.543566235455287" opacity="0.18086946608176047" transform="matrix(0.9564077994025526,-0.2920344521490001,0.2920344521490001,0.9564077994025526,467.8069986531966,332.5063604715769)" fill="none" stroke="#a55f3d44"></use><use xlink:href="#bbburst-shape-1" width="26.115250962496496" opacity="0.4084706580826488" transform="matrix(0.9170539750589516,0.3987630961217147,-0.3987630961217147,0.9170539750589516,366.6160801232965,223.27379095362818)" fill="#a55f3d44"></use><use xlink:href="#bbburst-shape-10" width="14.167452018963132" opacity="0.6899478813101505" transform="matrix(0.9769246524052511,-0.21358423051077363,0.21358423051077363,0.9769246524052511,417.0585290015747,97.32080665090575)" fill="none" stroke="#42619144"></use><use xlink:href="#bbburst-shape-8" width="15.163162150044531" opacity="0.5891460723194738" transform="matrix(0.760254596773227,-0.6496252366443117,0.6496252366443117,0.760254596773227,-40.85545349901119,159.752469044983)" fill="none" stroke="#42619144"></use><use xlink:href="#bbburst-shape-8" width="29.48131849837731" opacity="0.25846180924352014" transform="matrix(0.7583119244780916,-0.6518918815220305,0.6518918815220305,0.7583119244780916,-198.80948498818924,173.3918479598617)" fill="none" stroke="#42619144"></use><use xlink:href="#bbburst-shape-4" width="17.291200721584293" opacity="0.5920277902389393" transform="matrix(0.9974147385084843,0.07185985949089971,-0.07185985949089971,0.9974147385084843,239.14397103789275,-30.429429879527675)" fill="#42619144"></use><use xlink:href="#bbburst-shape-1" width="21.237667773696028" opacity="0.49313488907326086" transform="matrix(0.8982636418340156,-0.43945697145351026,0.43945697145351026,0.8982636418340156,252.82680379329807,-179.49291371067076)" fill="#a55f3d44"></use><use xlink:href="#bbburst-shape-6" width="22.272300853026415" opacity="0.2712647261182669" transform="matrix(0.9834364613097087,0.18125321118986487,-0.18125321118986487,0.9834364613097087,134.62003970614654,-21.000582680904074)" fill="#a55f3d44"></use><use xlink:href="#bbburst-shape-10" width="9.077575044876856" opacity="0.7925115300139435" transform="matrix(0.8647537595936424,0.502196112359167,-0.502196112359167,0.8647537595936424,505.404340101093,33.47052726723501)" fill="none" stroke="#42619144"></use><use xlink:href="#bbburst-shape-4" width="6.070782036755384" opacity="0.9496721192703338" transform="matrix(0.8978303702918301,-0.4403414881448661,0.4403414881448661,0.8978303702918301,201.3121580926618,31.266560026865477)" fill="#42619144"></use><use xlink:href="#bbburst-shape-1" width="8.998303327497473" opacity="0.7940963885716172" transform="matrix(0.8760596926920108,0.4822026698810155,-0.4822026698810155,0.8760596926920108,627.8555461555309,131.5022112425557)" fill="#42619144"></use><use xlink:href="#bbburst-shape-10" width="6.5354628883515655" opacity="0.8513612657305019" transform="matrix(0.8894683037080519,0.4569968672745151,-0.4569968672745151,0.8894683037080519,580.3286803311462,109.6053423513797)" fill="none" stroke="#42619144"></use><use xlink:href="#bbburst-shape-6" width="16.12732103742416" opacity="0.6829510539638912" transform="matrix(0.7132020480262646,0.7009585142439898,-0.7009585142439898,0.7132020480262646,532.6885365698465,94.66963405751068)" fill="#a55f3d44"></use><use xlink:href="#bbburst-shape-10" width="24.211342959974594" opacity="0.45931352204819964" transform="matrix(0.9959360591164735,-0.09006312315008971,0.09006312315008971,0.9959360591164735,560.391695938047,-122.73561723206313)" fill="none" stroke="#42619144"></use><use xlink:href="#bbburst-shape-6" width="32.71555829968814" opacity="0.32862900005497775" transform="matrix(0.9749936992880588,-0.22223250515751844,0.22223250515751844,0.9749936992880588,199.80484488183384,-273.0365551714908)" fill="#42619144"></use><use xlink:href="#bbburst-shape-4" width="5.675703150403157" opacity="0.9599529270627514" transform="matrix(0.7948163132939027,-0.6068500870247023,0.6068500870247023,0.7948163132939027,166.5919003459626,97.60424178686543)" fill="#42619144"></use><use xlink:href="#bbburst-shape-6" width="23.718354890687756" opacity="0.03367239778598863" transform="matrix(0.928469332588724,0.37140907156698455,-0.37140907156698455,0.928469332588724,766.0437598502417,-345.7705959965065)" fill="#42619144"></use><use xlink:href="#bbburst-shape-4" width="30.214190852817808" opacity="0.37118484325226175" transform="matrix(0.9625469373410329,-0.2711150925629144,0.2711150925629144,0.9625469373410329,558.6933898128403,-7.921759171796623)" fill="#a55f3d44"></use><use xlink:href="#bbburst-shape-4" width="10.517201224233071" opacity="0.7450336702889301" transform="matrix(0.7482286714406567,0.6634409206810729,-0.6634409206810729,0.7482286714406567,666.9842968186538,-17.37370327034148)" fill="#42619144"></use><use xlink:href="#bbburst-shape-1" width="25.27352482070064" opacity="0.12181233666728308" transform="matrix(0.8328340326777294,-0.5535227854512863,0.5535227854512863,0.8328340326777294,308.3083842665816,443.35817570296814)" fill="#a55f3d44"></use><use xlink:href="#bbburst-shape-4" width="25.648621625854958" opacity="0.17021040201726434" transform="matrix(0.9359271172152853,0.35219374108732493,-0.35219374108732493,0.9359271172152853,525.6608934425452,394.525852292937)" fill="#42619144"></use><use xlink:href="#bbburst-shape-4" width="11.327404788813938" opacity="0.6521143331087733" transform="matrix(0.9650082269346574,-0.2622196063387113,0.2622196063387113,0.9650082269346574,267.36392940405864,170.4459901525176)" fill="#a55f3d44"></use><use xlink:href="#bbburst-shape-6" width="22.338962236733195" opacity="0.5193982034873622" transform="matrix(0.9192576758017431,-0.3936563545525176,0.3936563545525176,0.9192576758017431,316.7596700259398,-162.3901485269101)" fill="#a55f3d44"></use><use xlink:href="#bbburst-shape-1" width="12.230333760417569" opacity="0.7516928077590477" transform="matrix(0.7670711308594937,-0.641562062626787,0.641562062626787,0.7670711308594937,167.5323786542882,-10.845937225773582)" fill="#42619144"></use><use xlink:href="#bbburst-shape-1" width="19.54572444457024" opacity="0.5881948498366871" transform="matrix(0.990958294991207,0.13417025597396762,-0.13417025597396762,0.990958294991207,589.7323902181877,-112.11154920759657)" fill="#42619144"></use><use xlink:href="#bbburst-shape-4" width="7.512081963206606" opacity="0.8607611045088321" transform="matrix(0.9621182621702957,-0.2726324441412102,0.2726324441412102,0.9621182621702957,346.6143803637243,-4.112817362129761)" fill="#42619144"></use><use xlink:href="#bbburst-shape-4" width="15.700259369264982" opacity="0.6562236822078" transform="matrix(0.9030500034233969,0.4295354366254347,-0.4295354366254347,0.9030500034233969,657.06498484087,159.53418464369037)" fill="#a55f3d44"></use><use xlink:href="#bbburst-shape-6" width="4.454654378631439" opacity="0.9222099307479924" transform="matrix(0.7462654099530416,-0.6656485092807005,0.6656485092807005,0.7462654099530416,159.5448669307989,81.27433797559627)" fill="#a55f3d44"></use><use xlink:href="#bbburst-shape-6" width="34.01365076164088" opacity="0.19992947821359153" transform="matrix(0.9819243237240605,0.18927393502288276,-0.18927393502288276,0.9819243237240605,181.14853311103573,232.9567078902711)" fill="#42619144"></use><use xlink:href="#bbburst-shape-1" width="28.773668483017886" opacity="0.11921097750186838" transform="matrix(0.7940588753971336,0.6078408528579166,-0.6078408528579166,0.7940588753971336,881.2678901037052,-234.24827734726927)" fill="#a55f3d44"></use><use xlink:href="#bbburst-shape-6" width="27.359257349016175" opacity="0.2689922076946244" transform="matrix(0.9979164739318669,-0.06451907512813312,0.06451907512813312,0.9979164739318669,56.53838826459918,-123.95259771834083)" fill="#42619144"></use><use xlink:href="#bbburst-shape-4" width="10.85987661967072" opacity="0.7796993692168246" transform="matrix(0.8188337838049313,0.574030691252392,-0.574030691252392,0.8188337838049313,670.2927553836508,-18.908331809013532)" fill="#42619144"></use><use xlink:href="#bbburst-shape-4" width="17.859431217091075" opacity="0.4559354222740216" transform="matrix(0.9385892833034217,0.345036457882307,-0.345036457882307,0.9385892833034217,454.7190921147379,254.58634827482086)" fill="#a55f3d44"></use><use xlink:href="#bbburst-shape-4" width="6.904015738287473" opacity="0.8338098197662748" transform="matrix(0.8031358177623615,0.595795987085498,-0.595795987085498,0.8031358177623615,597.1108099011946,140.84935098954264)" fill="#42619144"></use><use xlink:href="#bbburst-shape-1" width="5.519561438811378" opacity="0.8727516685138001" transform="matrix(0.8446069029024662,0.5353869437794538,-0.5353869437794538,0.8446069029024662,554.7731635586856,55.729643690425746)" fill="#a55f3d44"></use><use xlink:href="#bbburst-shape-6" width="5.24224762308936" opacity="0.9440670364318409" transform="matrix(0.7507058099976369,-0.6606366526584729,0.6606366526584729,0.7507058099976369,131.8606307473844,76.35261169755523)" fill="#42619144"></use><use xlink:href="#bbburst-shape-6" width="6.514733748136258" opacity="0.7945968963032684" transform="matrix(0.8480733806796378,0.5298787983894149,-0.5298787983894149,0.8480733806796378,565.8436783204327,140.68260345254174)" fill="#42619144"></use><use xlink:href="#bbburst-shape-6" width="17.289581754951776" opacity="0.4352668880330942" transform="matrix(0.812064549735187,-0.5835676199579513,0.5835676199579513,0.812064549735187,129.45402153303235,332.5603283267242)" fill="#a55f3d44"></use><use xlink:href="#bbburst-shape-8" width="9.639111188471638" opacity="0.8210432617504225" transform="matrix(0.9381514961621777,0.3462250283394707,-0.3462250283394707,0.9381514961621777,603.979938682868,62.86485286619745)" fill="none" stroke="#a55f3d44"></use><use xlink:href="#bbburst-shape-4" width="6.025451926832968" opacity="0.9007917305043528" transform="matrix(0.8633479653370855,0.5046090474301017,-0.5046090474301017,0.8633479653370855,622.951480302158,15.319105867819019)" fill="#42619144"></use><use xlink:href="#bbburst-shape-10" width="20.79229827942024" opacity="0.02216388478321707" transform="matrix(0.9575344688697435,0.28831881819669386,-0.28831881819669386,0.9575344688697435,265.39688825300925,382.81754407254675)" fill="none" stroke="#42619144"></use><use xlink:href="#bbburst-shape-4" width="35.63431712197915" opacity="-0.004294268904317056" transform="matrix(0.8537821930461837,-0.5206303552783385,0.5206303552783385,0.8537821930461837,-182.62426989982592,-206.49875746397515)" fill="#a55f3d44"></use><use xlink:href="#bbburst-shape-4" width="11.570852801710961" opacity="0.8138724850421699" transform="matrix(0.9442303286304369,0.3292857216680633,-0.3292857216680633,0.9442303286304369,580.2019689362376,-43.651868920054824)" fill="#42619144"></use><use xlink:href="#bbburst-shape-6" width="20.199815078925475" opacity="0.3678258415863045" transform="matrix(0.9683923602901192,-0.24943182742330997,0.24943182742330997,0.9683923602901192,11.481201071512302,-40.570928497993066)" fill="#a55f3d44"></use><use xlink:href="#bbburst-shape-6" width="7.171933019156455" opacity="0.9049047368245766" transform="matrix(0.8324776487674104,0.5540586289398298,-0.5540586289398298,0.8324776487674104,608.8395888228947,23.36622923522947)" fill="#42619144"></use><use xlink:href="#bbburst-shape-8" width="17.43848643510461" opacity="0.5800387718153842" transform="matrix(0.8332786051362402,0.5528532953887514,-0.5528532953887514,0.8332786051362402,785.0547512885273,-18.207848003689946)" fill="none" stroke="#a55f3d44"></use><use xlink:href="#bbburst-shape-1" width="8.891246928481449" opacity="0.8399030181232507" transform="matrix(0.8503239760442217,0.5262595707104488,-0.5262595707104488,0.8503239760442217,659.712616340847,106.3444130094781)" fill="#42619144"></use><use xlink:href="#bbburst-shape-6" width="8.580152360965252" opacity="0.7812996170563499" transform="matrix(0.9957904304250365,0.09165925307311162,-0.09165925307311162,0.9957904304250365,360.26886176525437,-65.67081575166515)" fill="#a55f3d44"></use><use xlink:href="#bbburst-shape-6" width="9.713437050868137" opacity="0.6619220363525572" transform="matrix(0.712490576044321,-0.7016816792877177,0.7016816792877177,0.712490576044321,180.0405020596611,256.3495652135152)" fill="#a55f3d44"></use><use xlink:href="#bbburst-shape-4" width="10.484556929093282" opacity="0.7017620665659691" transform="matrix(0.7429411449785844,0.6693567472565806,-0.6693567472565806,0.7429411449785844,587.9967640268296,-11.399181738243442)" fill="#42619144"></use><use xlink:href="#bbburst-shape-1" width="8.248893002007279" opacity="0.7852127022114137" transform="matrix(0.8668841939027583,0.4985095729888895,-0.4985095729888895,0.8668841939027583,586.733989859693,-45.026521882676036)" fill="#42619144"></use><use xlink:href="#bbburst-shape-6" width="7.331295121811867" opacity="0.8717118202068093" transform="matrix(0.7448207426848181,0.6672646111299743,-0.6672646111299743,0.7448207426848181,680.7882716323891,154.91354094343797)" fill="#a55f3d44"></use><use xlink:href="#bbburst-shape-10" width="6.482948065038768" opacity="0.8762783624504153" transform="matrix(0.9971905040001343,-0.07490726755100652,0.07490726755100652,0.9971905040001343,323.03312928828666,35.77189543098922)" fill="none" stroke="#42619144"></use><use xlink:href="#bbburst-shape-4" width="7.6494857680416635" opacity="0.8432089796396018" transform="matrix(0.9761172147006869,-0.2172445239010021,0.2172445239010021,0.9761172147006869,241.40392921233462,-8.54903838597943)" fill="#a55f3d44"></use><use xlink:href="#bbburst-shape-6" width="12.2114476645004" opacity="0.7349223689707324" transform="matrix(0.8859229956111536,-0.4638323467022971,0.4638323467022971,0.8859229956111536,267.66628899945295,152.3569168783892)" fill="#a55f3d44"></use><use xlink:href="#bbburst-shape-6" width="16.113463627325345" opacity="0.5428203563168763" transform="matrix(0.7715189037795224,0.6362063982001785,-0.6362063982001785,0.7715189037795224,620.5272062113629,-117.58535272869594)" fill="#a55f3d44"></use><use xlink:href="#bbburst-shape-10" width="10.998426917740096" opacity="0.6786311294758154" transform="matrix(0.9327273320966337,0.36058247872005084,-0.36058247872005084,0.9327273320966337,560.5585157831227,-118.08950294691539)" fill="none" stroke="#a55f3d44"></use><use xlink:href="#bbburst-shape-6" width="8.11420962163881" opacity="0.8071150912660388" transform="matrix(0.972287245959602,-0.23378945943795731,0.23378945943795731,0.972287245959602,301.2551983246715,98.82240505332197)" fill="#42619144"></use><use xlink:href="#bbburst-shape-4" width="7.879456308242279" opacity="0.8494893106577615" transform="matrix(0.9708307316692958,-0.2397659075983485,0.2397659075983485,0.9708307316692958,335.45085456128646,70.49562151286045)" fill="#a55f3d44"></use><use xlink:href="#bbburst-shape-10" width="5.575910344271132" opacity="0.9416852740862562" transform="matrix(0.7203515525013512,0.6936091412379837,-0.6936091412379837,0.7203515525013512,700.6743213578719,117.1101405323667)" fill="none" stroke="#42619144"></use><use xlink:href="#bbburst-shape-10" width="30.782078663969862" opacity="0.03144707611512698" transform="matrix(0.9398471070678631,-0.34159539712380277,0.34159539712380277,0.9398471070678631,-112.49596792592688,272.9569197521013)" fill="none" stroke="#a55f3d44"></use><use xlink:href="#bbburst-shape-10" width="20.033541751009444" opacity="0.48576533609384975" transform="matrix(0.8664488370443761,-0.499265873843234,0.499265873843234,0.8664488370443761,413.2124198230819,-8.234188991418648)" fill="none" stroke="#42619144"></use><use xlink:href="#bbburst-shape-10" width="6.969969109150823" opacity="0.8779219384421579" transform="matrix(0.7261896768995743,0.68749440227866,-0.68749440227866,0.7261896768995743,679.9799178465859,52.70925115587602)" fill="none" stroke="#42619144"></use><use xlink:href="#bbburst-shape-4" width="8.20443446232826" opacity="0.7483428775700481" transform="matrix(0.8034327181872413,-0.5953955553632064,0.5953955553632064,0.8034327181872413,109.57491001313221,183.18311078607366)" fill="#a55f3d44"></use><use xlink:href="#bbburst-shape-4" width="23.484155447719683" opacity="0.28166695968592126" transform="matrix(0.7579101952709923,0.6523589011459001,-0.6523589011459001,0.7579101952709923,454.99869540835084,345.4517720065561)" fill="#42619144"></use><use xlink:href="#bbburst-shape-10" width="10.493872434577492" opacity="0.8131490451479444" transform="matrix(0.8476307950884338,-0.5305865011642773,0.5305865011642773,0.8476307950884338,265.61469181451923,80.97057932985064)" fill="none" stroke="#42619144"></use><use xlink:href="#bbburst-shape-1" width="43.37004298501098" opacity="-0.10309969696555643" transform="matrix(0.9793930422934898,-0.20196353311205112,0.20196353311205112,0.9793930422934898,-53.248313750892486,363.4492478340828)" fill="#42619144"></use><use xlink:href="#bbburst-shape-1" width="9.657731691484278" opacity="0.8231973083034357" transform="matrix(0.9927418510798469,-0.12026477919390648,0.12026477919390648,0.9927418510798469,267.5452976442007,4.364933121147146)" fill="#a55f3d44"></use><use xlink:href="#bbburst-shape-10" width="21.694448364563215" opacity="0.3914496355306325" transform="matrix(0.9825790979324694,-0.18584487161666477,0.18584487161666477,0.9825790979324694,41.977880375623116,30.182836150513367)" fill="none" stroke="#a55f3d44"></use><use xlink:href="#bbburst-shape-10" width="26.93800970351664" opacity="0.264056898822028" transform="matrix(0.9526335001195725,-0.3041207234798912,0.3041207234798912,0.9526335001195725,580.8894148057313,124.13210519725806)" fill="none" stroke="#a55f3d44"></use><use xlink:href="#bbburst-shape-6" width="20.530575420642236" opacity="0.5051534638117761" transform="matrix(0.9975964076629029,0.0692921887233425,-0.0692921887233425,0.9975964076629029,429.09644153019866,222.62790482221556)" fill="#a55f3d44"></use><use xlink:href="#bbburst-shape-4" width="17.44221834985541" opacity="0.4850023812932893" transform="matrix(0.9980374914764202,-0.06261921116921393,0.06261921116921393,0.9980374914764202,136.54077095599104,-29.33791178057993)" fill="#42619144"></use><use xlink:href="#bbburst-shape-6" width="13.504403329796371" opacity="0.5975782929947426" transform="matrix(0.8869869994100302,-0.46179439459308186,0.46179439459308186,0.8869869994100302,151.3262084046815,-123.23798916541745)" fill="#a55f3d44"></use><use xlink:href="#bbburst-shape-10" width="6.544747991158603" opacity="0.8624326277784347" transform="matrix(0.7204875557024714,0.6934678666512806,-0.6934678666512806,0.7204875557024714,706.4377799431956,56.18979499626829)" fill="none" stroke="#42619144"></use><use xlink:href="#bbburst-shape-8" width="7.61508390027625" opacity="0.8881517889399843" transform="matrix(0.7538140812960238,-0.6570877649445557,0.6570877649445557,0.7538140812960238,184.57236669446166,98.6444213935506)" fill="none" stroke="#42619144"></use><use xlink:href="#bbburst-shape-8" width="12.763898020844508" opacity="0.7663895152875552" transform="matrix(0.896283324094007,-0.4434819082566922,0.4434819082566922,0.896283324094007,301.7671468806885,106.33792389826499)" fill="none" stroke="#a55f3d44"></use><use xlink:href="#bbburst-shape-6" width="14.164448975308884" opacity="0.6160932780812575" transform="matrix(0.887218299641232,0.46134985507933246,-0.46134985507933246,0.887218299641232,629.5437949611152,206.81495480670753)" fill="#a55f3d44"></use><use xlink:href="#bbburst-shape-8" width="17.590593544979942" opacity="0.2597400856879608" transform="matrix(0.9806320740714559,0.19585896788841348,-0.19585896788841348,0.9806320740714559,801.1055571589644,39.930540115136864)" fill="none" stroke="#a55f3d44"></use><use xlink:href="#bbburst-shape-6" width="13.691935398380286" opacity="0.6080988433600345" transform="matrix(0.7077322663524392,0.7064807422454202,-0.7064807422454202,0.7077322663524392,831.1907736675266,198.9976722234041)" fill="#42619144"></use><use xlink:href="#bbburst-shape-4" width="7.82076501392707" opacity="0.8640671994978626" transform="matrix(0.9423905094795172,-0.33451476446180384,0.33451476446180384,0.9423905094795172,319.6294678399986,46.25057252759245)" fill="#a55f3d44"></use><use xlink:href="#bbburst-shape-10" width="27.97017207818595" opacity="0.31507163248639214" transform="matrix(0.8106518947416692,0.5855283985869016,-0.5855283985869016,0.8106518947416692,869.1240482009528,-117.81193609278054)" fill="none" stroke="#42619144"></use><use xlink:href="#bbburst-shape-1" width="13.96171662370754" opacity="0.7518330062163504" transform="matrix(0.9667280976808574,0.25580614760859566,-0.25580614760859566,0.9667280976808574,600.7999532913262,-25.847323781571788)" fill="#42619144"></use><use xlink:href="#bbburst-shape-4" width="7.8156040237893105" opacity="0.845844415466973" transform="matrix(0.7201616446159614,0.6938063170828251,-0.6938063170828251,0.7201616446159614,614.5137269739669,143.71695648718764)" fill="#42619144"></use><use xlink:href="#bbburst-shape-1" width="24.586747719390683" opacity="0.43766742202473785" transform="matrix(0.9765212698017003,-0.21542100553306037,0.21542100553306037,0.9765212698017003,459.06505043869635,210.34432344213212)" fill="#a55f3d44"></use><use xlink:href="#bbburst-shape-6" width="28.440327708222462" opacity="0.37032355927060534" transform="matrix(0.8039743646833344,-0.5946639563081226,0.5946639563081226,0.8039743646833344,184.258747627277,-194.49364722353505)" fill="#a55f3d44"></use><use xlink:href="#bbburst-shape-10" width="21.02745244206828" opacity="0.1281263780829417" transform="matrix(0.9362489303182128,-0.3513373599234821,0.3513373599234821,0.9362489303182128,123.97325187288149,400.8737756611986)" fill="none" stroke="#42619144"></use><use xlink:href="#bbburst-shape-6" width="26.603566793633423" opacity="0.09635552619255061" transform="matrix(0.8719935974889492,0.4895172784879818,-0.4895172784879818,0.8719935974889492,311.0977504067039,345.96708042920073)" fill="#42619144"></use><use xlink:href="#bbburst-shape-6" width="20.106181807455222" opacity="0.49792573914953053" transform="matrix(0.977916507378404,0.2089959439721834,-0.2089959439721834,0.977916507378404,699.3981394125059,-4.955258175781125)" fill="#a55f3d44"></use><use xlink:href="#bbburst-shape-6" width="10.499294330390498" opacity="0.8310621562474405" transform="matrix(0.9990097887861417,0.044490919404622006,-0.044490919404622006,0.9990097887861417,476.04629122602887,-41.64420416557931)" fill="#42619144"></use><use xlink:href="#bbburst-shape-1" width="28.66235454988606" opacity="0.36467594530292013" transform="matrix(0.9800938687353414,-0.19853465306437376,0.19853465306437376,0.9800938687353414,402.9887284714806,-258.29459639848545)" fill="#42619144"></use><use xlink:href="#bbburst-shape-1" width="5.450511991248403" opacity="0.9527010748216078" transform="matrix(0.9981523329846945,0.06076117310595302,-0.06076117310595302,0.9981523329846945,441.1216601825738,-7.863643244533478)" fill="#a55f3d44"></use><use xlink:href="#bbburst-shape-1" width="18.082363744778867" opacity="0.6314666343666995" transform="matrix(0.7817220259324362,0.6236270313032362,-0.6236270313032362,0.7817220259324362,477.21673463022273,96.78342936234685)" fill="#a55f3d44"></use><use xlink:href="#bbburst-shape-6" width="24.729172614649524" opacity="0.4845366763623754" transform="matrix(0.8606719190257008,0.5091599432404492,-0.5091599432404492,0.8606719190257008,367.9331292260571,105.46943651012776)" fill="#42619144"></use><use xlink:href="#bbburst-shape-6" width="12.766534413180898" opacity="0.7346164714108682" transform="matrix(0.8211405974380903,-0.5707259580911106,0.5707259580911106,0.8211405974380903,245.663322374701,164.57310392624458)" fill="#a55f3d44"></use><use xlink:href="#bbburst-shape-6" width="7.963693311672127" opacity="0.7990082095737653" transform="matrix(0.9997174544079847,-0.023769967438325077,0.023769967438325077,0.9997174544079847,306.3616130261139,42.119124944809016)" fill="#42619144"></use><use xlink:href="#bbburst-shape-6" width="32.06164584948726" opacity="0.04927369879690624" transform="matrix(0.9507711085805647,0.30989401266962874,-0.30989401266962874,0.9507711085805647,288.4503848939298,-352.0441521074831)" fill="#a55f3d44"></use><use xlink:href="#bbburst-shape-1" width="33.51991380299509" opacity="0.12421316312226394" transform="matrix(0.964494879743154,0.264101546661959,-0.264101546661959,0.964494879743154,117.3192639691093,139.5327301562288)" fill="#42619144"></use><use xlink:href="#bbburst-shape-8" width="33.37537938146495" opacity="0.1362901909138885" transform="matrix(0.977797082536873,0.20955396770851062,-0.20955396770851062,0.977797082536873,761.9768472745229,-248.28861361364366)" fill="none" stroke="#a55f3d44"></use><use xlink:href="#bbburst-shape-8" width="7.545261558855368" opacity="0.8051588954611569" transform="matrix(0.8475308098364416,-0.5307461977046897,0.5307461977046897,0.8475308098364416,106.03339747221005,23.876463554906593)" fill="none" stroke="#42619144"></use><use xlink:href="#bbburst-shape-4" width="7.033369967742747" opacity="0.9055637137346381" transform="matrix(0.993087961791265,-0.11737248461743909,0.11737248461743909,0.993087961791265,307.49252618738035,9.210427817776406)" fill="#a55f3d44"></use><use xlink:href="#bbburst-shape-8" width="20.914312436573226" opacity="0.16071881869370552" transform="matrix(0.7822737681847859,0.6229347892115,-0.6229347892115,0.7822737681847859,1018.4505378588194,93.45244932492642)" fill="none" stroke="#42619144"></use><use xlink:href="#bbburst-shape-4" width="5.47869067577936" opacity="0.9234973013745839" transform="matrix(0.8448695106492218,-0.5349724385193545,0.5349724385193545,0.8448695106492218,185.33034127230525,97.90943150220033)" fill="#a55f3d44"></use><use xlink:href="#bbburst-shape-1" width="7.177902735467249" opacity="0.7874897911121617" transform="matrix(0.7491051346429114,0.6624511281986208,-0.6624511281986208,0.7491051346429114,631.2009592129192,7.550925238138291)" fill="#a55f3d44"></use><use xlink:href="#bbburst-shape-1" width="8.440671687434675" opacity="0.8692062978295736" transform="matrix(0.735175931947439,-0.6778763523572824,0.6778763523572824,0.735175931947439,169.36222058959146,69.26999767037222)" fill="#a55f3d44"></use></svg>